<?xml version="1.0" encoding="UTF-8"?>
<svg width="320px" height="320px" viewBox="0 0 320 320" version="1.1" xmlns="http://www.w3.org/2000/svg" xmlns:xlink="http://www.w3.org/1999/xlink">
    <title>新版logo备份</title>
    <g id="新版logo备份" stroke="none" stroke-width="1" fill="none" fill-rule="evenodd">
        <line x1="74.5" y1="64.6442568" x2="103.5" y2="64.1442568" id="路径-3" stroke="#FFFFFF" stroke-width="20" stroke-linecap="round" stroke-linejoin="round"></line>
        <line x1="151.5" y1="144.144257" x2="181.5" y2="144.144257" id="路径-3备份-6" stroke="#FFFFFF" stroke-width="20" stroke-linecap="round" stroke-linejoin="round"></line>
        <line x1="200.5" y1="145.144257" x2="248.5" y2="145.144257" id="路径-3备份-9" stroke="#FFFFFF" stroke-width="20" stroke-linecap="round" stroke-linejoin="round"></line>
        <line x1="189.5" y1="194.144257" x2="254.5" y2="194.144257" id="路径-3备份-10" stroke="#FFFFFF" stroke-width="20" stroke-linecap="round" stroke-linejoin="round"></line>
        <line x1="135.5" y1="105.144257" x2="250.5" y2="105.144257" id="路径-3备份-4" stroke="#FFFFFF" stroke-width="20" stroke-linecap="round" stroke-linejoin="round"></line>
        <path d="M142.13839,59.5197763 C162.14463,58.2809461 179.429305,56.4644047 193.992416,54.0701521 C208.555527,51.6758995 223.012213,47.9290734 237.362472,42.8296737" id="路径-3备份" stroke="#FFFFFF" stroke-width="20" stroke-linecap="round" stroke-linejoin="round" transform="translate(189.750431, 51.174725) rotate(1.000000) translate(-189.750431, -51.174725) "></path>
        <line x1="99.6089127" y1="115.644257" x2="107.5" y2="115.644257" id="路径-3" stroke="#FFFFFF" stroke-width="20" stroke-linecap="round" stroke-linejoin="round"></line>
        <line x1="152.5" y1="83.6442568" x2="156.5" y2="90.6442568" id="路径-3" stroke="#FFFFFF" stroke-width="20" stroke-linecap="round" stroke-linejoin="round"></line>
        <line x1="155.5" y1="176.644257" x2="163.5" y2="182.644257" id="路径-3备份-8" stroke="#FFFFFF" stroke-width="20" stroke-linecap="round" stroke-linejoin="round"></line>
        <line x1="188.5" y1="78.6442568" x2="193.5" y2="87.6442568" id="路径-3备份-2" stroke="#FFFFFF" stroke-width="20" stroke-linecap="round" stroke-linejoin="round"></line>
        <line x1="224.5" y1="71.6442568" x2="239.5" y2="97.6442568" id="路径-3备份-3" stroke="#FFFFFF" stroke-width="20" stroke-linecap="round" stroke-linejoin="round" transform="translate(232.000000, 84.644257) scale(-1, 1) translate(-232.000000, -84.644257) "></line>
        <path d="M129.5,130.644257 C133.868951,141.139321 137.525714,148.919187 140.470287,153.983852 C143.41486,159.048518 148.091431,165.601986 154.5,173.644257" id="路径-3备份-5" stroke="#FFFFFF" stroke-width="20" stroke-linecap="round" stroke-linejoin="round" transform="translate(142.000000, 152.144257) scale(-1, 1) translate(-142.000000, -152.144257) "></path>
        <path d="M117.5,144.644257 C120.523256,157.534768 125.394057,169.895587 132.112403,181.726714 C137.691164,191.55101 147.426713,209.195394 167.383721,223.108846 C173.430233,227.3243 178.468992,229.836103 182.5,230.644257" id="路径-3备份-7" stroke="#FFFFFF" stroke-width="20" stroke-linecap="round" stroke-linejoin="round" transform="translate(150.000000, 187.644257) scale(-1, 1) translate(-150.000000, -187.644257) "></path>
        <line x1="74.5" y1="145.144257" x2="103.5" y2="144.644257" id="路径-3" stroke="#FFFFFF" stroke-width="20" stroke-linecap="round" stroke-linejoin="round"></line>
        <line x1="103.5" y1="205.144257" x2="73.5" y2="205.144257" id="路径-3" stroke="#FFFFFF" stroke-width="20" stroke-linecap="round" stroke-linejoin="round"></line>
        <line x1="74" y1="65.6442568" x2="74" y2="116.484285" id="路径-2" stroke="#FFFFFF" stroke-width="20" stroke-linecap="round" stroke-linejoin="round"></line>
        <line x1="104" y1="64.6442568" x2="104" y2="89.6442568" id="路径-2" stroke="#FFFFFF" stroke-width="20" stroke-linecap="round" stroke-linejoin="round"></line>
        <line x1="135.5" y1="105.644257" x2="135.5" y2="120.644257" id="路径-2备份-2" stroke="#FFFFFF" stroke-width="20" stroke-linecap="round" stroke-linejoin="round"></line>
        <line x1="73.5" y1="173.644257" x2="73.5" y2="204.644257" id="路径-2备份" stroke="#FFFFFF" stroke-width="20" stroke-linecap="round" stroke-linejoin="round"></line>
        <line x1="207" y1="171.644257" x2="207" y2="181.644257" id="路径-2备份-4" stroke="#FFFFFF" stroke-width="20" stroke-linecap="round" stroke-linejoin="round"></line>
        <line x1="104" y1="144.644257" x2="104" y2="204.644257" id="路径-2" stroke="#FFFFFF" stroke-width="20" stroke-linecap="round" stroke-linejoin="round"></line>
        <line x1="233" y1="132.644257" x2="233" y2="230.644257" id="路径-2备份-5" stroke="#FFFFFF" stroke-width="20" stroke-linecap="round" stroke-linejoin="round"></line>
        <path d="M63,276.166886 C63,276.166886 63,276.12615 63,276.085414 C63.2894737,268.956636 64.2406015,257.509855 64.5714286,251.603154 C64.7368421,248.588699 66.6390977,247.040736 68.5827068,247.040736 C70.2781955,247.040736 72.0150376,248.18134 72.7593985,250.544021 C74.3308271,255.432326 77.9699248,268.060447 78.962406,270.056505 C79.0864662,270.30092 79.2105263,270.423127 79.3759398,270.423127 C79.5,270.423127 79.6654135,270.30092 79.7481203,270.056505 C81.3195489,266.308804 84.6278195,254.984231 86.2406015,250.340342 C87.0263158,248.059133 88.8045113,247 90.5,247 C92.5676692,247 94.5526316,248.588699 94.6353383,251.44021 C94.7593985,256.695138 95.6691729,269.934297 96,275.718791 L96,275.881735 C96,277.266754 94.8007519,278 93.6015038,278 C92.4022556,278 91.2030075,277.30749 91.1203008,275.881735 C90.7067669,270.056505 90.2932331,253.884363 90.2932331,253.884363 C90.2932331,253.191853 90.1278195,252.906702 89.9210526,252.906702 C89.7142857,252.906702 89.424812,253.273325 89.3007519,253.762155 C88.3909774,257.143233 84.1315789,270.382392 82.4360902,274.74113 C81.8984962,276.12615 80.575188,277.063075 79.2105263,277.063075 C78.0526316,277.063075 76.8947368,276.411301 76.2330827,274.781866 C74.9097744,271.68594 71.2706767,258.772668 69.7406015,253.965834 C69.575188,253.477004 69.3684211,253.191853 69.2030075,253.191853 C68.9962406,253.191853 68.8308271,253.51774 68.7481203,254.373193 C68.4586466,257.95795 67.8796992,270.341656 67.6729323,275.963206 C67.6315789,277.30749 66.3909774,278 65.1917293,278 C64.075188,278 63,277.388962 63,276.166886 Z M125,275.753623 C125,277.142292 123.773585,277.959157 122.506289,277.959157 C121.566038,277.959157 120.584906,277.509881 120.176101,276.447958 C119.685535,275.263505 118.622642,271.996047 117.355346,268.197628 C117.273585,267.952569 117.150943,267.83004 116.90566,267.83004 C116.251572,267.789196 114.575472,267.789196 112.735849,267.789196 C110.283019,267.789196 107.544025,267.789196 106.685535,267.83004 C106.481132,267.83004 106.27673,267.952569 106.194969,268.197628 C105.172956,271.424242 104.232704,274.364954 103.619497,276.325428 C103.251572,277.469038 102.311321,278 101.330189,278 C100.185535,278 99,277.223979 99,275.957839 C99,275.222661 99.1226415,274.895916 108.075472,249.736495 C108.72956,247.857708 110.201258,247 111.672956,247 C113.226415,247 114.820755,247.980237 115.474843,249.818182 C118.091195,257.16996 123.40566,271.383399 124.754717,274.56917 C124.918239,274.977602 125,275.386034 125,275.753623 Z M116,262.797794 C116,262.757353 116,262.676471 115.958549,262.595588 C114.673575,258.794118 113.430052,255.113971 112.766839,253.132353 C112.518135,252.404412 112.310881,252 112.062176,252 C111.854922,252 111.606218,252.363971 111.316062,253.172794 C110.694301,254.790441 108,262.352941 108,262.716912 C108,262.878676 108.082902,262.959559 108.331606,262.959559 C109.160622,262.959559 110.694301,263 112.145078,263 C113.637306,263 115.088083,262.959559 115.668394,262.959559 C115.917098,262.959559 116,262.919118 116,262.797794 Z M133.313531,275.908792 L133.313531,275.867787 C133.39604,272.669469 133.437294,266.723876 133.437294,261.311337 C133.437294,257.702977 133.437294,254.299638 133.354785,252.126421 C133.354785,251.30634 133.231023,251.30634 130.79703,251.30634 C129.229373,251.30634 127.290429,251.388348 125.351485,251.388348 C123.783828,251.388348 123,250.281237 123,249.174127 C123,248.067017 123.742574,247.00091 125.268977,247.00091 L125.351485,247.00091 C127.826733,247.041915 132.19967,247.082919 136.490099,247.082919 C139.9967,247.082919 143.5033,247.041915 145.854785,247.00091 C147.463696,246.959906 148,248.313041 148,249.215131 C148,250.322241 147.339934,251.388348 146.019802,251.388348 L145.854785,251.388348 C144.452145,251.30634 143.255776,251.30634 142.265677,251.30634 C138.181518,251.30634 138.181518,251.30634 138.181518,252.126421 C138.09901,254.914699 138.057756,258.892096 138.057756,262.910496 C138.057756,267.830986 138.140264,272.833485 138.264026,275.867787 C138.346535,277.302931 137.067657,278 135.788779,278 C134.551155,278 133.313531,277.302931 133.313531,275.908792 Z M173,275.753623 C173,277.142292 171.773585,277.959157 170.506289,277.959157 C169.566038,277.959157 168.584906,277.509881 168.176101,276.447958 C167.685535,275.263505 166.622642,271.996047 165.355346,268.197628 C165.273585,267.952569 165.150943,267.83004 164.90566,267.83004 C164.251572,267.789196 162.575472,267.789196 160.735849,267.789196 C158.283019,267.789196 155.544025,267.789196 154.685535,267.83004 C154.481132,267.83004 154.27673,267.952569 154.194969,268.197628 C153.172956,271.424242 152.232704,274.364954 151.619497,276.325428 C151.251572,277.469038 150.311321,278 149.330189,278 C148.185535,278 147,277.223979 147,275.957839 C147,275.222661 147.122642,274.895916 156.075472,249.736495 C156.72956,247.857708 158.201258,247 159.672956,247 C161.226415,247 162.820755,247.980237 163.474843,249.818182 C166.091195,257.16996 171.40566,271.383399 172.754717,274.56917 C172.918239,274.977602 173,275.386034 173,275.753623 Z M164,262.797794 C164,262.757353 164,262.676471 163.958549,262.595588 C162.673575,258.794118 161.430052,255.113971 160.766839,253.132353 C160.518135,252.404412 160.310881,252 160.062176,252 C159.854922,252 159.606218,252.363971 159.316062,253.172794 C158.694301,254.790441 156,262.352941 156,262.716912 C156,262.878676 156.082902,262.959559 156.331606,262.959559 C157.160622,262.959559 158.694301,263 160.145078,263 C161.637306,263 163.088083,262.959559 163.668394,262.959559 C163.917098,262.959559 164,262.919118 164,262.797794 Z M180.313531,275.908792 L180.313531,275.867787 C180.39604,272.669469 180.437294,266.723876 180.437294,261.311337 C180.437294,257.702977 180.437294,254.299638 180.354785,252.126421 C180.354785,251.30634 180.231023,251.30634 177.79703,251.30634 C176.229373,251.30634 174.290429,251.388348 172.351485,251.388348 C170.783828,251.388348 170,250.281237 170,249.174127 C170,248.067017 170.742574,247.00091 172.268977,247.00091 L172.351485,247.00091 C174.826733,247.041915 179.19967,247.082919 183.490099,247.082919 C186.9967,247.082919 190.5033,247.041915 192.854785,247.00091 C194.463696,246.959906 195,248.313041 195,249.215131 C195,250.322241 194.339934,251.388348 193.019802,251.388348 L192.854785,251.388348 C191.452145,251.30634 190.255776,251.30634 189.265677,251.30634 C185.181518,251.30634 185.181518,251.30634 185.181518,252.126421 C185.09901,254.914699 185.057756,258.892096 185.057756,262.910496 C185.057756,267.830986 185.140264,272.833485 185.264026,275.867787 C185.346535,277.302931 184.067657,278 182.788779,278 C181.551155,278 180.313531,277.302931 180.313531,275.908792 Z M220,275.753623 C220,277.142292 218.773585,277.959157 217.506289,277.959157 C216.566038,277.959157 215.584906,277.509881 215.176101,276.447958 C214.685535,275.263505 213.622642,271.996047 212.355346,268.197628 C212.273585,267.952569 212.150943,267.83004 211.90566,267.83004 C211.251572,267.789196 209.575472,267.789196 207.735849,267.789196 C205.283019,267.789196 202.544025,267.789196 201.685535,267.83004 C201.481132,267.83004 201.27673,267.952569 201.194969,268.197628 C200.172956,271.424242 199.232704,274.364954 198.619497,276.325428 C198.251572,277.469038 197.311321,278 196.330189,278 C195.185535,278 194,277.223979 194,275.957839 C194,275.222661 194.122642,274.895916 203.075472,249.736495 C203.72956,247.857708 205.201258,247 206.672956,247 C208.226415,247 209.820755,247.980237 210.474843,249.818182 C213.091195,257.16996 218.40566,271.383399 219.754717,274.56917 C219.918239,274.977602 220,275.386034 220,275.753623 Z M211,262.797794 C211,262.757353 211,262.676471 210.958549,262.595588 C209.673575,258.794118 208.430052,255.113971 207.766839,253.132353 C207.518135,252.404412 207.310881,252 207.062176,252 C206.854922,252 206.606218,252.363971 206.316062,253.172794 C205.694301,254.790441 203,262.352941 203,262.716912 C203,262.878676 203.082902,262.959559 203.331606,262.959559 C204.160622,262.959559 205.694301,263 207.145078,263 C208.637306,263 210.088083,262.959559 210.668394,262.959559 C210.917098,262.959559 211,262.919118 211,262.797794 Z M224.001286,276.003942 L224.001286,275.963206 C224.083333,271.645204 224.124357,266.268068 224.124357,261.176084 C224.124357,256.613666 224.083333,252.295664 224.001286,249.199737 C223.960263,247.896189 224.903802,247 226.339623,247 C227.529302,247 228.718982,247.733246 228.718982,249.118265 L228.718982,249.199737 C228.677959,250.829172 228.636935,252.417871 228.636935,253.843627 C228.636935,256.043364 228.677959,257.835742 228.718982,258.854139 C228.718982,259.220762 228.801029,259.668857 229.785592,259.668857 C230.647084,259.668857 231.262436,259.302234 232.000858,258.487516 C234.954545,255.310118 239.713265,250.095926 241.395226,247.896189 C241.846484,247.285151 242.461835,247.040736 243.077187,247.040736 C244.389937,247.040736 245.743711,248.222076 245.743711,249.525624 C245.743711,249.932983 245.62064,250.381078 245.292453,250.788436 C243.487421,252.988173 238.482561,257.95795 235.610921,260.972405 C235.36478,261.21682 235.24171,261.420499 235.24171,261.624179 C235.24171,261.787122 235.36478,261.990802 235.610921,262.235217 C239.097913,265.779238 246.605203,272.86728 247.302601,273.641261 C247.794883,274.170828 248,274.781866 248,275.311432 C248,276.737188 246.646226,278 245.251429,278 C244.595054,278 243.979703,277.755585 243.405375,277.185283 C242.010577,275.759527 235.077616,268.386334 232.082905,264.923784 C231.467553,264.231275 230.975272,264.109067 230.35992,264.109067 C230.072756,264.109067 229.826615,264.149803 229.498428,264.149803 C229.17024,264.149803 228.718982,264.190539 228.718982,264.801577 C228.677959,265.86071 228.636935,268.019711 228.636935,270.667543 C228.636935,272.296978 228.636935,274.089356 228.718982,275.963206 L228.718982,276.044678 C228.718982,277.348226 227.570326,277.959264 226.380646,277.959264 C225.190966,277.959264 224.001286,277.30749 224.001286,276.003942 Z M257,275.788639 L257,275.82959 C257,277.26288 255.750672,278 254.501344,278 C253.252016,278 252.002689,277.26288 252.002689,275.82959 L252.002689,275.788639 C252.085977,270.874505 252.21091,265.387054 252.21091,260.104359 C252.21091,256.214003 252.127621,252.48745 252.002689,249.17041 C251.9194,247.450462 253.793392,247 254.542989,247 C255.750672,247 257,247.655218 257,249.006605 C257,249.047556 257,249.047556 257,249.088507 C256.916711,252.48745 256.875067,256.336856 256.875067,260.309115 C256.875067,265.428005 256.916711,270.751651 257,275.788639 Z" id="MATATAKI" fill="#FFFFFF" fill-rule="nonzero"></path>
    </g>
</svg>